<?xml version="1.0" encoding="UTF-8" standalone="no"?>
<!-- Generator: Adobe Illustrator 16.0.4, SVG Export Plug-In . SVG Version: 6.00 Build 0)  -->

<svg
   xmlns:dc="http://purl.org/dc/elements/1.1/"
   xmlns:cc="http://creativecommons.org/ns#"
   xmlns:rdf="http://www.w3.org/1999/02/22-rdf-syntax-ns#"
   xmlns:svg="http://www.w3.org/2000/svg"
   xmlns="http://www.w3.org/2000/svg"
   xmlns:sodipodi="http://sodipodi.sourceforge.net/DTD/sodipodi-0.dtd"
   xmlns:inkscape="http://www.inkscape.org/namespaces/inkscape"
   version="1.1"
   x="0px"
   y="0px"
   width="474.56601"
   height="108.403"
   viewBox="0 0 474.56602 108.403"
   enable-background="new 0 0 752.873 423.836"
   xml:space="preserve"
   id="svg2"
   inkscape:version="0.91 r13725"
   sodipodi:docname="logo-mikado-light.svg"><metadata
     id="metadata42"><rdf:RDF><cc:Work
         rdf:about=""><dc:format>image/svg+xml</dc:format><dc:type
           rdf:resource="http://purl.org/dc/dcmitype/StillImage" /><dc:title></dc:title></cc:Work></rdf:RDF></metadata><defs
     id="defs40" /><sodipodi:namedview
     pagecolor="#000000"
     bordercolor="#666666"
     borderopacity="1"
     objecttolerance="10"
     gridtolerance="10"
     guidetolerance="10"
     inkscape:pageopacity="0"
     inkscape:pageshadow="2"
     inkscape:window-width="1609"
     inkscape:window-height="968"
     id="namedview38"
     showgrid="false"
     fit-margin-top="0"
     fit-margin-left="0"
     fit-margin-right="0"
     fit-margin-bottom="0"
     inkscape:zoom="2.2165385"
     inkscape:cx="235.93724"
     inkscape:cy="2.193258"
     inkscape:window-x="-4"
     inkscape:window-y="0"
     inkscape:window-maximized="0"
     inkscape:current-layer="svg2"
     showborder="true" /><g
     id="MIKADO"
     transform="translate(-147.078,-129.965)" /><g
     id="g6"
     transform="translate(-147.078,-129.965)"
     style="fill:#ffffff;fill-opacity:1"><path
       inkscape:connector-curvature="0"
       id="path8"
       d="m 229.378,145.613 -34.139,47.398 c -0.762,1.219 -1.981,1.677 -3.048,1.677 l -0.305,0 c -1.372,0 -2.438,-0.458 -3.201,-1.677 l -34.139,-47.245 0,87.632 c 0,1.981 -1.676,3.658 -3.658,3.658 -2.134,0 -3.81,-1.677 -3.81,-3.658 l 0,-98.758 c 0,-1.219 0.609,-2.286 1.524,-2.896 0,-0.152 0.152,-0.152 0.305,-0.305 1.676,-1.067 3.962,-0.763 5.182,0.914 l 37.949,52.58 37.796,-52.58 c 1.067,-1.677 3.505,-1.981 5.182,-0.914 0.457,0.457 0.762,0.762 1.067,1.219 0.305,0.609 0.61,1.372 0.61,1.981 l 0,98.758 c 0,1.981 -1.677,3.658 -3.658,3.658 -2.133,0 -3.657,-1.677 -3.657,-3.658 l 0,-87.784 z"
       style="fill:#ffffff;fill-opacity:1" /></g><g
     id="g10"
     transform="translate(-147.078,-129.965)"
     style="fill:#ffffff;fill-opacity:1"><path
       inkscape:connector-curvature="0"
       id="path12"
       d="m 295.719,134.518 c 0,-2.134 1.676,-3.811 3.658,-3.811 2.134,0 3.81,1.677 3.81,3.811 l 0,61.724 64.467,-64.467 c 1.524,-1.372 3.962,-1.372 5.182,0 1.524,1.371 1.524,3.81 0,5.334 l -40.844,40.845 41.759,53.037 c 1.219,1.676 0.915,3.81 -0.609,5.334 -0.762,0.609 -1.524,0.762 -2.438,0.762 -1.067,0 -1.981,-0.305 -2.744,-1.372 l -41.302,-52.427 -23.47,23.471 0,26.67 c 0,1.981 -1.676,3.658 -3.81,3.658 -1.981,0 -3.658,-1.677 -3.658,-3.658 l 0,-98.911 z"
       style="fill:#ffffff;fill-opacity:1" /></g><g
     id="g14"
     transform="translate(-147.078,-129.965)"
     style="fill:#ffffff;fill-opacity:1"><path
       inkscape:connector-curvature="0"
       id="path16"
       d="m 434.664,209.498 -48.617,0 -9.449,25.146 c -0.609,1.524 -1.981,2.438 -3.505,2.438 -0.305,0 -0.914,-0.152 -1.372,-0.152 -1.829,-0.762 -2.896,-3.048 -2.134,-4.877 l 37.035,-98.911 c 0.609,-1.371 2.134,-2.286 3.658,-2.286 1.676,0 3.2,0.915 3.658,2.286 l 37.034,98.911 c 0.762,1.829 -0.152,4.115 -1.981,4.877 -0.61,0 -0.915,0.152 -1.372,0.152 -1.372,0 -2.896,-0.914 -3.505,-2.438 l -9.45,-25.146 z m -45.874,-7.468 43.131,0 -21.489,-57.305 -21.642,57.305 z"
       style="fill:#ffffff;fill-opacity:1" /></g><g
     id="g18"
     transform="translate(-147.078,-129.965)"
     style="fill:#ffffff;fill-opacity:1"><path
       inkscape:connector-curvature="0"
       id="path20"
       d="m 450.176,237.085 -0.609,0 c -1.829,-0.152 -3.353,-1.677 -3.353,-3.658 l 0,-99.367 c 0,-1.981 1.676,-3.658 3.658,-3.658 l 0.457,0 19.508,0 c 29.415,0 53.342,24.08 53.342,53.494 0,29.414 -23.927,53.189 -53.342,53.189 l -19.661,0 z m 19.66,-7.468 c 25.299,0 45.874,-20.422 45.874,-45.722 0,-25.451 -20.575,-45.874 -45.874,-46.026 l -16.155,0 0,91.748 16.155,0 z"
       style="fill:#ffffff;fill-opacity:1" /></g><path
     inkscape:connector-curvature="0"
     id="path22"
     d="m 474.566,54.201 c 0,29.932 -22.796,54.202 -50.924,54.202 -28.125,0 -50.92,-24.271 -50.92,-54.202 0,-29.935 22.795,-54.201 50.92,-54.201 28.128,0 50.924,24.266 50.924,54.201 z"
     style="fill:#ffffff;fill-opacity:1" /><path
     style="fill:#808080"
     inkscape:connector-curvature="0"
     id="path26"
     d="m 454.901,54.08 c 0,17.886 -13.956,32.385 -31.175,32.385 -17.207,0 -31.167,-14.499 -31.167,-32.385 0,-17.881 13.96,-32.385 31.167,-32.385 17.219,0 31.175,14.504 31.175,32.385 z" /><g
     id="MiiKADO"
     transform="translate(-147.078,-129.965)" /><g
     id="g30"
     transform="translate(-147.078,-129.965)"
     style="fill:#ffffff;fill-opacity:1"><path
       inkscape:connector-curvature="0"
       id="path32"
       d="m 281.426,147.403 2.413,-9.005 c 0.513,-1.914 -0.674,-3.967 -2.734,-4.52 -1.913,-0.512 -3.967,0.673 -4.479,2.586 l -2.413,9.006 7.213,1.933 z"
       style="fill:#ffffff;fill-opacity:1" /><path
       inkscape:connector-curvature="0"
       id="path34"
       d="m 257.868,206.465 -6.962,25.982 c -0.513,1.914 0.674,3.967 2.587,4.479 2.061,0.553 4.114,-0.633 4.627,-2.546 l 6.962,-25.983 -7.214,-1.932 z"
       style="fill:#ffffff;fill-opacity:1" /></g><rect
     style="fill:#808080"
     id="rect36"
     height="41.799831"
     width="7.6139693"
     transform="matrix(0.96590385,0.25890103,-0.25890103,0.96590385,0,0)"
     y="-7.0656571"
     x="126.71783" /><path
     style="fill:#008000;fill-opacity:1"
     inkscape:connector-curvature="0"
     id="path24"
     d="M 423.318,86.469 C 406.187,86.297 392.395,71.674 392.575,53.883 392.759,36.087 406.847,21.751 423.974,21.929 l 0.137,-13.081 c -24.077,-0.248 -43.87,19.899 -44.13,44.906 -0.249,25.006 19.125,45.55 43.202,45.8 24.072,0.244 43.869,-19.905 44.125,-44.911 l -12.586,-0.127 c -0.189,17.794 -14.273,32.128 -31.404,31.953 z" /></svg>