<?xml version="1.0" encoding="UTF-8" standalone="no"?>
<!-- Generator: Adobe Illustrator 14.0.0, SVG Export Plug-In . SVG Version: 6.00 Build 43363)  -->

<svg
   xmlns:dc="http://purl.org/dc/elements/1.1/"
   xmlns:cc="http://creativecommons.org/ns#"
   xmlns:rdf="http://www.w3.org/1999/02/22-rdf-syntax-ns#"
   xmlns:svg="http://www.w3.org/2000/svg"
   xmlns="http://www.w3.org/2000/svg"
   xmlns:sodipodi="http://sodipodi.sourceforge.net/DTD/sodipodi-0.dtd"
   xmlns:inkscape="http://www.inkscape.org/namespaces/inkscape"
   version="1.1"
   id="Ebene_1"
   x="0px"
   y="0px"
   width="175.09584"
   height="168.52498"
   viewBox="0 0 175.09584 168.52498"
   enable-background="new 0 0 170.078 31.547"
   xml:space="preserve"
   inkscape:version="0.48.4 r9939"
   sodipodi:docname="\\files.isys-vision.de\o\10 Allgemein\20 isys\10 Logos - Corporate Design\isys vision Logos ab 12-2010\isys vision Logos finale Versionen\isys vision LOGO Basis Farbe Vektor\isys_vision_logo_svg\isys_vision_logo_svg\isys_vision_Logo_2010_RGB_quadratisch.svg"
   inkscape:export-filename="O:\10 Allgemein\20 isys\10 Logos - Corporate Design\isys vision Logos ab 12-2010\isys vision Logos finale Versionen\isys vision LOGO Basis Farbe Vektor\isys_vision_logo_svg\isys_vision_logo_svg\isys_vision_Logo_2010_RGB_quadratisch.png"
   inkscape:export-xdpi="288.45999"
   inkscape:export-ydpi="288.45999"><metadata
   id="metadata51"><rdf:RDF><cc:Work
       rdf:about=""><dc:format>image/svg+xml</dc:format><dc:type
         rdf:resource="http://purl.org/dc/dcmitype/StillImage" /><dc:title></dc:title></cc:Work></rdf:RDF></metadata><defs
   id="defs49" /><sodipodi:namedview
   pagecolor="#ffffff"
   bordercolor="#666666"
   borderopacity="1"
   objecttolerance="10"
   gridtolerance="10"
   guidetolerance="10"
   inkscape:pageopacity="0"
   inkscape:pageshadow="2"
   inkscape:window-width="1156"
   inkscape:window-height="960"
   id="namedview47"
   showgrid="false"
   inkscape:zoom="8"
   inkscape:cx="133.08623"
   inkscape:cy="141.02438"
   inkscape:window-x="2256"
   inkscape:window-y="57"
   inkscape:window-maximized="0"
   inkscape:current-layer="g3011"
   fit-margin-top="0"
   fit-margin-left="0"
   fit-margin-right="0"
   fit-margin-bottom="0"
   showborder="false" />









<g
   id="g3011"
   transform="scale(1.8706793,1.853412)"><g
     id="g3035"><g
       id="g3"
       transform="matrix(2.7976094,0,0,2.7976094,-0.00106854,-15.061148)">
	<rect
   x="26.059999"
   y="19.103001"
   width="6.8579998"
   height="6.8579998"
   id="rect5"
   style="fill:#006833" />
	<rect
   x="26.059999"
   y="6.756"
   width="6.8579998"
   height="6.8579998"
   id="rect7"
   style="fill:#006833" />
</g><rect
       x="38.370949"
       y="38.38166"
       width="19.183207"
       height="19.186005"
       id="rect9"
       style="fill:#006833" /><rect
       x="-33.915833"
       y="-52.909229"
       transform="matrix(-0.70710678,0.70710678,-0.70710678,-0.70710678,0,0)"
       width="18.992786"
       height="18.992786"
       id="rect11"
       style="fill:#9b2536" /><rect
       x="3.837254"
       y="38.38166"
       width="19.186005"
       height="19.186005"
       id="rect13"
       style="fill:#006833" /><rect
       x="-9.4963932"
       y="-28.48918"
       transform="matrix(-0.70710678,0.70710678,-0.70710678,-0.70710678,0,0)"
       width="18.992786"
       height="18.992786"
       id="rect15"
       style="fill:#006833" /><g
       id="g17"
       transform="matrix(0.69674164,0,0,0.69674164,-24.899591,68.946773)">
	<path
   d="m 41.148,6.756 h 5.487 V 25.961 H 41.148 V 6.756 z"
   id="path19"
   inkscape:connector-curvature="0"
   style="fill:#006833" />
	<path
   d="m 48,18.046 5.487,1.936 v 0.71 c 0,0.631 0.198,1.027 1.146,1.027 0.946,0 1.145,-0.396 1.145,-1.027 v -1.066 c 0,-0.335 -0.119,-0.474 -0.396,-0.572 L 49.916,17.119 C 48.652,16.666 48,15.875 48,14.198 v -3.612 c 0,-2.152 1.737,-3.829 3.889,-3.829 h 5.487 c 2.153,0 3.888,1.677 3.888,3.829 v 4.086 l -5.487,-1.934 v -0.712 c 0,-0.631 -0.198,-1.025 -1.145,-1.025 -0.948,0 -1.146,0.394 -1.146,1.025 v 1.067 c 0,0.334 0.119,0.473 0.396,0.572 l 5.467,1.934 c 1.265,0.456 1.915,1.245 1.915,2.922 v 3.612 c 0,2.152 -1.735,3.829 -3.888,3.829 H 51.89 c -2.152,0 -3.889,-1.677 -3.889,-3.829 v -4.087 z"
   id="path21"
   inkscape:connector-curvature="0"
   style="fill:#006833" />
	<path
   d="m 69.263,27.304 c 0.947,0 1.145,-0.391 1.145,-1.028 v -1.28 c -0.889,0.592 -1.915,0.965 -2.862,0.965 H 66.52 c -2.152,0 -3.89,-1.677 -3.89,-3.829 V 6.756 h 5.487 v 13.955 c 0,0.632 0.198,1.027 1.146,1.027 0.868,0 1.106,-0.335 1.145,-0.889 V 6.756 h 5.486 V 27.72 c 0,2.149 -1.734,3.827 -3.888,3.827 h -8.23 v -4.243 h 5.487 z"
   id="path23"
   inkscape:connector-curvature="0"
   style="fill:#006833" />
	<path
   d="m 77.261,18.046 5.486,1.936 v 0.71 c 0,0.631 0.197,1.027 1.146,1.027 0.947,0 1.144,-0.396 1.144,-1.027 v -1.066 c 0,-0.335 -0.117,-0.474 -0.395,-0.572 l -5.467,-1.935 c -1.262,-0.454 -1.914,-1.245 -1.914,-2.922 v -3.612 c 0,-2.152 1.736,-3.829 3.889,-3.829 h 5.489 c 2.15,0 3.885,1.677 3.885,3.829 v 4.086 L 85.037,12.737 V 12.025 C 85.037,11.394 84.841,11 83.893,11 c -0.948,0 -1.146,0.394 -1.146,1.025 v 1.067 c 0,0.334 0.119,0.473 0.396,0.572 l 5.467,1.934 c 1.263,0.456 1.913,1.245 1.913,2.922 v 3.612 c 0,2.152 -1.734,3.829 -3.885,3.829 H 81.15 c -2.152,0 -3.889,-1.677 -3.889,-3.829 v -4.086 z"
   id="path25"
   inkscape:connector-curvature="0"
   style="fill:#006833" />
</g><g
       id="g27"
       transform="matrix(0.69674164,0,0,0.69674164,-24.899591,68.946773)">
	<path
   d="M 99.012,16.902 C 98.874,16.547 98.756,16.034 98.756,15.519 V 6.756 h 5.487 v 7.362 c 0,0.435 0.097,0.87 0.217,1.204 l 0.729,2.172 c 0.04,0.119 0.099,0.217 0.197,0.217 0.098,0 0.157,-0.098 0.198,-0.217 l 0.73,-2.172 c 0.117,-0.334 0.216,-0.77 0.216,-1.204 V 6.756 h 5.487 v 8.763 c 0,0.515 -0.116,1.027 -0.258,1.383 l -3.63,9.059 h -5.487 l -3.63,-9.059 z"
   id="path29"
   inkscape:connector-curvature="0"
   style="fill:#006833" />
	<path
   d="m 113.478,6.756 h 5.482 v 19.205 h -5.482 V 6.756 z"
   id="path31"
   inkscape:connector-curvature="0"
   style="fill:#006833" />
	<path
   d="m 120.418,18.046 5.487,1.936 v 0.71 c 0,0.631 0.2,1.027 1.146,1.027 0.948,0 1.143,-0.396 1.143,-1.027 v -1.066 c 0,-0.335 -0.115,-0.474 -0.392,-0.572 l -5.467,-1.935 c -1.263,-0.454 -1.917,-1.245 -1.917,-2.922 v -3.612 c 0,-2.152 1.738,-3.829 3.89,-3.829 h 5.486 c 2.155,0 3.892,1.677 3.892,3.829 v 4.086 l -5.492,-1.934 V 12.025 C 128.194,11.394 128,11 127.051,11 c -0.945,0 -1.146,0.394 -1.146,1.025 v 1.067 c 0,0.334 0.118,0.473 0.396,0.572 l 5.467,1.934 c 1.264,0.456 1.917,1.245 1.917,2.922 v 3.612 c 0,2.152 -1.736,3.829 -3.892,3.829 h -5.486 c -2.151,0 -3.89,-1.677 -3.89,-3.829 v -4.086 z"
   id="path33"
   inkscape:connector-curvature="0"
   style="fill:#006833" />
	<path
   d="m 135.144,6.756 h 5.487 v 19.205 h -5.487 V 6.756 z"
   id="path35"
   inkscape:connector-curvature="0"
   style="fill:#006833" />
	<path
   d="m 142.089,10.585 c 0,-2.152 1.738,-3.829 3.889,-3.829 h 5.488 c 2.149,0 3.89,1.677 3.89,3.829 v 11.547 c 0,2.152 -1.74,3.829 -3.89,3.829 h -5.488 c -2.15,0 -3.889,-1.677 -3.889,-3.829 V 10.585 z m 6.634,11.134 c 0.945,0 1.146,-0.396 1.146,-1.027 v -8.666 c 0,-0.631 -0.2,-1.025 -1.146,-1.025 -0.949,0 -1.145,0.394 -1.145,1.025 v 8.666 c 0,0.631 0.195,1.027 1.145,1.027 z"
   id="path37"
   inkscape:connector-curvature="0"
   style="fill:#006833" />
	<path
   d="m 156.814,6.756 h 5.488 v 0.986 c 0.888,-0.61 1.916,-0.986 2.862,-0.986 h 1.028 c 2.146,0 3.885,1.677 3.885,3.829 V 25.96 H 164.59 V 12.026 c 0,-0.631 -0.197,-1.025 -1.143,-1.025 -0.888,0 -1.146,0.335 -1.146,0.887 v 14.073 h -5.488 V 6.756 z"
   id="path39"
   inkscape:connector-curvature="0"
   style="fill:#006833" />
</g><rect
       x="3.7699323"
       width="3.8230214"
       height="3.8237181"
       id="rect41"
       y="68.946785"
       style="fill:#9b2536" /><rect
       x="54.165253"
       width="3.8195376"
       height="3.8237181"
       id="rect43"
       y="68.946785"
       style="fill:#9b2536" /><rect
       x="69.260857"
       width="3.8230214"
       height="3.8237181"
       id="rect45"
       y="68.946785"
       style="fill:#9b2536" /></g></g>
</svg>