<?xml version="1.0" encoding="UTF-8" standalone="no"?>
<!-- Created with Inkscape (http://www.inkscape.org/) -->

<svg
   xmlns:dc="http://purl.org/dc/elements/1.1/"
   xmlns:cc="http://creativecommons.org/ns#"
   xmlns:rdf="http://www.w3.org/1999/02/22-rdf-syntax-ns#"
   xmlns:svg="http://www.w3.org/2000/svg"
   xmlns="http://www.w3.org/2000/svg"
   xmlns:sodipodi="http://sodipodi.sourceforge.net/DTD/sodipodi-0.dtd"
   xmlns:inkscape="http://www.inkscape.org/namespaces/inkscape"
   id="svg2985"
   version="1.1"
   inkscape:version="0.48.0 r9654"
   width="170.07801"
   height="31.547"
   xml:space="preserve"
   sodipodi:docname="Neues Dokument 2"><metadata
     id="metadata2991"><rdf:RDF><cc:Work
         rdf:about=""><dc:format>image/svg+xml</dc:format><dc:type
           rdf:resource="http://purl.org/dc/dcmitype/StillImage" /><dc:title></dc:title></cc:Work></rdf:RDF></metadata><defs
     id="defs2989" /><sodipodi:namedview
     pagecolor="#ffffff"
     bordercolor="#666666"
     borderopacity="1"
     objecttolerance="10"
     gridtolerance="10"
     guidetolerance="10"
     inkscape:pageopacity="0"
     inkscape:pageshadow="2"
     inkscape:window-width="1346"
     inkscape:window-height="944"
     id="namedview2987"
     showgrid="false"
     inkscape:zoom="2.8222345"
     inkscape:cx="85.039001"
     inkscape:cy="15.7735"
     inkscape:window-x="2215"
     inkscape:window-y="142"
     inkscape:window-maximized="0"
     inkscape:current-layer="g2993" /><g
     id="g2993"
     inkscape:groupmode="layer"
     inkscape:label="isys_vision_logo-Pantonefarben"
     transform="matrix(1.25,0,0,-1.25,0,31.547)"><g
       id="g2995"><path
         d="m 20.848,9.956 5.488,0 0,-5.488 -5.488,0 0,5.488 z"
         style="fill:#006633;fill-opacity:1;fill-rule:nonzero;stroke:none"
         id="path2997" /><path
         d="m 20.848,19.831 5.488,0 0,-5.484 -5.488,0 0,5.484 z"
         style="fill:#006633;fill-opacity:1;fill-rule:nonzero;stroke:none"
         id="path2999" /><path
         d="m 10.973,9.956 5.484,0 0,-5.488 -5.484,0 0,5.488 z"
         style="fill:#006633;fill-opacity:1;fill-rule:nonzero;stroke:none"
         id="path3001" /><path
         d="m 17.555,17.089 -3.84,-3.84 -3.84,3.84 3.84,3.84 3.84,-3.84 z"
         style="fill:#b10035;fill-opacity:1;fill-rule:nonzero;stroke:none"
         id="path3003" /><path
         d="m 1.098,9.956 5.488,0 0,-5.488 -5.488,0 0,5.488 z"
         style="fill:#006633;fill-opacity:1;fill-rule:nonzero;stroke:none"
         id="path3005" /><path
         d="m 7.68,17.089 -3.84,-3.84 -3.84,3.84 3.84,3.84 3.84,-3.84 z"
         style="fill:#006633;fill-opacity:1;fill-rule:nonzero;stroke:none"
         id="path3007" /><path
         d="m 32.918,19.831 4.391,0 0,-15.363 -4.391,0 0,15.363 z"
         style="fill:#006633;fill-opacity:1;fill-rule:nonzero;stroke:none"
         id="path3009" /><path
         d="m 38.398,10.8 4.391,-1.547 0,-0.57 c 0,-0.504 0.16,-0.82 0.918,-0.82 0.758,0 0.914,0.316 0.914,0.82 l 0,0.855 c 0,0.266 -0.094,0.379 -0.316,0.457 l -4.371,1.547 c -1.012,0.364 -1.536,0.996 -1.536,2.336 l 0,2.891 c 0,1.723 1.391,3.062 3.114,3.062 l 4.39,0 c 1.723,0 3.11,-1.339 3.11,-3.062 l 0,-3.27 -4.391,1.547 0,0.571 c 0,0.503 -0.156,0.82 -0.914,0.82 -0.762,0 -0.918,-0.317 -0.918,-0.82 l 0,-0.852 c 0,-0.27 0.094,-0.379 0.316,-0.461 l 4.375,-1.547 c 1.012,-0.363 1.532,-0.996 1.532,-2.336 l 0,-2.89 c 0,-1.723 -1.387,-3.063 -3.11,-3.063 l -4.39,0 c -1.723,0 -3.11,1.34 -3.11,3.063 l 0,3.269 -0.004,0 z"
         style="fill:#006633;fill-opacity:1;fill-rule:nonzero;stroke:none"
         id="path3011" /><path
         d="m 55.41,3.394 c 0.758,0 0.918,0.312 0.918,0.824 l 0,1.024 C 55.613,4.769 54.793,4.468 54.035,4.468 l -0.82,0 c -1.719,0 -3.11,1.344 -3.11,3.063 l 0,12.3 4.387,0 0,-11.164 c 0,-0.504 0.16,-0.82 0.918,-0.82 0.695,0 0.887,0.27 0.918,0.711 l 0,11.273 4.387,0 0,-16.769 c 0,-1.719 -1.387,-3.063 -3.11,-3.063 l -6.585,0 0,3.395 4.39,0 z"
         style="fill:#006633;fill-opacity:1;fill-rule:nonzero;stroke:none"
         id="path3013" /><path
         d="m 61.809,10.8 4.39,-1.547 0,-0.57 c 0,-0.504 0.156,-0.82 0.914,-0.82 0.758,0 0.918,0.316 0.918,0.82 l 0,0.855 c 0,0.266 -0.093,0.379 -0.316,0.457 l -4.375,1.547 c -1.008,0.364 -1.531,0.996 -1.531,2.336 l 0,2.891 c 0,1.723 1.39,3.062 3.113,3.062 l 4.391,0 c 1.718,0 3.105,-1.339 3.105,-3.062 l 0,-3.27 -4.387,1.547 0,0.571 c 0,0.507 -0.16,0.82 -0.918,0.82 -0.758,0 -0.914,-0.313 -0.914,-0.82 l 0,-0.852 c 0,-0.27 0.094,-0.379 0.317,-0.457 l 4.371,-1.547 c 1.011,-0.367 1.531,-0.996 1.531,-2.34 l 0,-2.89 c 0,-1.719 -1.387,-3.063 -3.109,-3.063 l -4.387,0 c -1.723,0 -3.113,1.344 -3.113,3.063 l 0,3.269 z"
         style="fill:#006633;fill-opacity:1;fill-rule:nonzero;stroke:none"
         id="path3015" /><path
         d="m 79.211,11.714 c -0.113,0.285 -0.207,0.695 -0.207,1.11 l 0,7.007 4.391,0 0,-5.886 c 0,-0.348 0.078,-0.7 0.171,-0.965 l 0.586,-1.738 c 0.032,-0.094 0.078,-0.172 0.157,-0.172 0.078,0 0.125,0.078 0.16,0.172 l 0.582,1.738 c 0.094,0.265 0.172,0.617 0.172,0.965 l 0,5.886 4.39,0 0,-7.007 c 0,-0.415 -0.093,-0.825 -0.207,-1.11 l -2.902,-7.246 -4.391,0 -2.902,7.246 z"
         style="fill:#006633;fill-opacity:1;fill-rule:nonzero;stroke:none"
         id="path3017" /><path
         d="m 90.781,19.831 4.387,0 0,-15.363 -4.387,0 0,15.363 z"
         style="fill:#006633;fill-opacity:1;fill-rule:nonzero;stroke:none"
         id="path3019" /><path
         d="m 96.336,10.8 4.387,-1.547 0,-0.57 c 0,-0.504 0.16,-0.82 0.918,-0.82 0.757,0 0.914,0.316 0.914,0.82 l 0,0.855 c 0,0.266 -0.09,0.379 -0.313,0.457 l -4.375,1.547 c -1.008,0.364 -1.531,0.996 -1.531,2.336 l 0,2.891 c 0,1.723 1.391,3.062 3.109,3.062 l 4.391,0 c 1.723,0 3.113,-1.339 3.113,-3.062 l 0,-3.27 -4.394,1.547 0,0.571 c 0,0.507 -0.157,0.82 -0.914,0.82 -0.754,0 -0.918,-0.313 -0.918,-0.82 l 0,-0.852 c 0,-0.27 0.097,-0.379 0.316,-0.457 l 4.375,-1.547 c 1.012,-0.367 1.535,-0.996 1.535,-2.34 l 0,-2.89 c 0,-1.719 -1.39,-3.063 -3.113,-3.063 l -4.391,0 c -1.718,0 -3.113,1.344 -3.113,3.063 l 0,3.269 0.004,0 z"
         style="fill:#006633;fill-opacity:1;fill-rule:nonzero;stroke:none"
         id="path3021" /><path
         d="m 108.113,19.831 4.391,0 0,-15.363 -4.391,0 0,15.363 z"
         style="fill:#006633;fill-opacity:1;fill-rule:nonzero;stroke:none"
         id="path3023" /><path
         d="m 113.672,16.769 c 0,1.723 1.391,3.062 3.109,3.062 l 4.391,0 c 1.719,0 3.113,-1.339 3.113,-3.062 l 0,-9.238 c 0,-1.719 -1.39,-3.063 -3.113,-3.063 l -4.391,0 c -1.718,0 -3.109,1.344 -3.109,3.063 l 0,9.238 z m 5.305,-8.906 c 0.757,0 0.918,0.316 0.918,0.82 l 0,6.934 c 0,0.503 -0.161,0.82 -0.918,0.82 -0.758,0 -0.914,-0.317 -0.914,-0.82 l 0,-6.934 c 0,-0.504 0.156,-0.82 0.914,-0.82 z"
         style="fill:#006633;fill-opacity:1;fill-rule:nonzero;stroke:none"
         id="path3025" /><path
         d="m 125.453,19.831 4.387,0 0,-0.789 c 0.711,0.489 1.535,0.789 2.293,0.789 l 0.82,0 c 1.719,0 3.11,-1.339 3.11,-3.062 l 0,-12.301 -4.391,0 0,11.149 c 0,0.503 -0.156,0.82 -0.914,0.82 -0.711,0 -0.918,-0.27 -0.918,-0.711 l 0,-11.258 -4.391,0 0,15.363 0.004,0 z"
         style="fill:#006633;fill-opacity:1;fill-rule:nonzero;stroke:none"
         id="path3027" /><path
         d="m 32.918,25.238 4.391,0 0,-4.391 -4.391,0 0,4.391 z"
         style="fill:#b10035;fill-opacity:1;fill-rule:nonzero;stroke:none"
         id="path3029" /><path
         d="m 90.781,25.238 4.387,0 0,-4.391 -4.387,0 0,4.391 z"
         style="fill:#b10035;fill-opacity:1;fill-rule:nonzero;stroke:none"
         id="path3031" /><path
         d="m 108.113,25.238 4.391,0 0,-4.391 -4.391,0 0,4.391 z"
         style="fill:#b10035;fill-opacity:1;fill-rule:nonzero;stroke:none"
         id="path3033" /></g></g></svg>